<svg width="93" height="103" viewBox="0 0 93 103" fill="none" xmlns="http://www.w3.org/2000/svg">
<path d="M48.0672 48.1341C49.0316 48.9443 48.6641 52.6592 47.9196 53.503C47.0199 54.4719 45.2489 54.5369 44.0682 54.5698C41.2408 54.6987 38.2884 54.266 35.522 53.6145C33.7193 53.2113 32.8164 51.9953 31.4788 50.9672C30.0479 49.8144 28.2464 50.2852 26.6626 50.8805C24.644 51.6637 22.622 50.0436 23.7686 47.9194C24.8842 45.8578 27.8035 44.7923 29.9785 44.8204C31.0971 44.8188 32.3092 45.0043 33.1494 45.8771C34.0517 46.7185 33.3383 47.5623 33.8367 48.4356C34.5843 49.7766 36.9772 49.9917 38.3133 50.021C40.6126 50.0177 42.9116 49.7959 45.0855 48.9812C45.7376 48.7305 47.5073 47.698 48.0673 48.1966L48.0672 48.1341Z" fill="#C3A00F"/>
<path d="M47.9188 53.5109C47.5466 53.9172 47.0187 54.1677 46.4596 54.3245C46.5836 54.1371 46.6766 53.9809 46.7695 53.7623C46.8933 53.3875 46.8306 52.9818 46.6436 52.6076C46.6432 52.3579 46.4875 52.1084 46.2389 52.0775C45.9277 51.7658 45.5546 51.5791 45.2127 51.5172C42.0115 50.9911 38.5345 53.0562 35.6419 51.0628C34.2423 50.0972 33.4634 48.6937 32.3433 47.6029C32.2187 47.4158 32.0631 47.2287 31.9075 47.0417C29.6051 44.9225 24.0764 46.3662 23.5838 49.5507C23.4278 49.0827 23.4891 48.5208 23.83 47.896C24.9456 45.8344 27.8649 44.7689 30.0399 44.797C31.1585 44.7954 32.3706 44.9809 33.2108 45.8537C34.1131 46.6951 33.3996 47.5389 33.8981 48.4122C34.6457 49.7532 37.0386 49.9683 38.3747 49.9976C40.674 49.9943 42.973 49.7725 45.1469 48.9578C45.799 48.7071 47.5686 47.6746 48.1287 48.1732C49.0931 48.9833 48.7255 52.6982 47.981 53.542L47.9188 53.5109Z" fill="#AF8E02"/>
<path d="M47.9189 53.5029C47.0192 54.4718 45.2482 54.5368 44.0675 54.5697C41.2402 54.6987 38.2877 54.2659 35.5214 53.6144C34.4024 53.3663 33.6248 52.8056 32.8782 52.1824C33.7471 51.4321 34.3047 50.214 34.3962 49.0277C35.4227 49.8066 37.194 49.9601 38.2815 49.9898C40.5809 49.9864 42.8799 49.7646 45.0537 48.95C45.7059 48.6993 47.4755 47.6668 48.0355 48.1654C48.9999 48.9755 48.6324 52.6904 47.8879 53.5342L47.9189 53.5029Z" fill="#A1A300"/>
<path d="M47.9196 53.5004C47.0199 54.4693 45.2489 54.5342 44.0682 54.5672C43.9128 54.5674 43.7575 54.5676 43.6332 54.5678C44.689 54.0981 46.5829 53.1277 45.6493 52.0678C44.4354 50.665 42.3237 51.4484 40.7705 51.7627C38.9378 52.1399 35.457 51.5831 34.3047 49.7432C34.3665 49.4934 34.3972 49.2749 34.4279 49.0251C35.4544 49.804 37.2257 49.9575 38.3133 49.9871C40.6126 49.9838 42.9116 49.762 45.0855 48.9474C45.7376 48.6967 47.5073 47.6641 48.0673 48.1627C49.0317 48.9729 48.6641 52.6878 47.9196 53.5316L47.9196 53.5004Z" fill="#808705"/>
<path opacity="0.72" d="M27.4023 47.2187C28.769 46.8734 29.888 47.1839 30.9767 47.9939C31.4745 48.3989 32.9361 49.2708 32.2847 50.0832C31.0097 49.3048 29.113 48.4023 27.5291 48.9664C26.939 49.1546 26.5359 49.6858 25.8835 49.8115C24.9827 49.9689 24.3917 49.564 24.8254 48.627C25.197 47.7837 26.5637 47.4384 27.4024 47.2499L27.4023 47.2187Z" fill="#E5B623"/>
<path opacity="0.43" d="M24.0199 50.1864C25.792 50.9018 27.6231 49.4009 29.4879 49.7416C32.5959 50.2989 34.1847 53.137 37.572 53.4755C39.5298 53.6599 41.1462 54.0946 42.7004 54.5605C40.3079 54.5328 37.8216 54.1618 35.5525 53.6032C33.7498 53.2001 32.8469 51.9841 31.5094 50.956C30.0784 49.8031 28.2769 50.2739 26.6931 50.8693C25.4198 51.3705 24.1141 50.873 23.6466 49.906C23.7711 50.0307 23.8955 50.1242 24.051 50.1864L24.0199 50.1864Z" fill="#F7F75C"/>
<path d="M47.4446 47.1674C47.6945 48.0722 45.9575 50.2284 45.1189 50.4169C44.156 50.668 43.0364 49.9517 42.29 49.4846C40.4862 48.3635 38.8372 46.8677 37.3746 45.3403C36.4411 44.3429 36.3462 43.1881 35.9715 41.9714C35.5347 40.6923 34.229 40.2259 33.0168 39.9156C31.4315 39.5121 30.8385 37.7026 32.4531 36.8575C33.9744 36.0438 36.2435 36.6023 37.581 37.568C38.2653 38.0664 38.9496 38.6273 39.1374 39.5634C39.3251 40.4371 38.5797 40.6567 38.5187 41.4371C38.396 42.5609 39.7959 43.7138 40.6356 44.2432C42.0663 45.2087 43.5901 46.0493 45.2685 46.4526C45.7659 46.5768 47.2885 46.6682 47.4446 47.1986L47.4446 47.1674Z" fill="#C3A00F"/>
<path d="M45.118 50.4059C44.7142 50.5001 44.3102 50.4382 43.875 50.314C44.0303 50.2513 44.1856 50.1887 44.3097 50.0949C44.558 49.9072 44.6819 49.6261 44.6815 49.314C44.7745 49.1578 44.8053 48.9705 44.6807 48.8146C44.6182 48.5026 44.4935 48.2218 44.2757 48.0349C42.5333 46.3831 39.488 46.2002 38.5212 43.7358C38.0535 42.5816 38.1449 41.3641 37.9258 40.2408C37.9256 40.0847 37.9253 39.8974 37.8629 39.7102C37.3003 37.4325 33.29 36.0337 31.6147 37.8152C31.7385 37.4717 31.9866 37.128 32.4834 36.8776C34.0047 36.0639 36.2738 36.6224 37.6113 37.5881C38.2956 38.0865 38.9799 38.6474 39.1677 39.5835C39.3554 40.4572 38.61 40.6768 38.549 41.4572C38.4263 42.581 39.8262 43.7339 40.6659 44.2633C42.0966 45.2288 43.6203 46.0694 45.2988 46.4727C45.7961 46.5969 47.3188 46.6883 47.4749 47.2187C47.7248 48.1235 45.9879 50.2797 45.1492 50.4682L45.118 50.4059Z" fill="#AF8E02"/>
<path d="M45.1187 50.4169C44.1558 50.668 43.0362 49.9517 42.2898 49.4845C40.486 48.3635 38.8371 46.8676 37.3745 45.3403C36.8143 44.7168 36.5647 44.0305 36.3462 43.3441C37.2161 43.2493 38.0543 42.7174 38.5815 42.03C38.8936 42.9659 39.9202 43.8072 40.6044 44.2432C42.0351 45.2087 43.5588 46.0493 45.2373 46.4526C45.7346 46.5768 47.2572 46.6682 47.4134 47.1986C47.6633 48.1034 45.9263 50.2596 45.0877 50.4481L45.1187 50.4169Z" fill="#A1A300"/>
<path d="M45.1189 50.4169C44.156 50.668 43.0364 49.9517 42.29 49.4846C42.1967 49.4535 42.1034 49.36 42.0101 49.2977C42.8803 49.4837 44.4342 49.6688 44.3083 48.5765C44.151 47.1721 42.5036 46.8 41.4155 46.3646C40.1407 45.8046 38.1806 44.0282 38.2404 42.4051C38.3645 42.28 38.5197 42.155 38.6127 41.9988C38.9248 42.9347 39.9513 43.776 40.6356 44.212C42.0663 45.1775 43.59 46.0181 45.2685 46.4214C45.7658 46.5456 47.2885 46.637 47.4446 47.1674C47.6945 48.0722 45.9575 50.2284 45.1189 50.4169Z" fill="#808705"/>
<path opacity="0.72" d="M34.9706 37.9755C35.9964 38.3173 36.5256 38.9721 36.8688 39.9392C37.0248 40.4071 37.5857 41.53 36.8093 41.7496C36.3728 40.7514 35.563 39.4104 34.3508 39.1C33.9156 38.9758 33.4497 39.1326 32.9833 38.9147C32.3615 38.6347 32.1743 38.1356 32.8263 37.7289C33.4161 37.3535 34.3798 37.7266 34.9705 37.9443L34.9706 37.9755Z" fill="#E5B623"/>
<path opacity="0.43" d="M31.6467 38.3801C32.4562 39.565 34.1961 39.4065 35.2539 40.4038C36.9342 42.0244 36.7513 44.4905 38.7111 46.0795C39.8621 47.0143 40.7024 47.9807 41.4495 48.8848C39.9876 47.8568 38.5876 46.6103 37.405 45.3011C36.4714 44.3036 36.3765 43.1489 36.0019 41.9321C35.565 40.653 34.2593 40.1867 33.0471 39.8763C32.0524 39.628 31.4609 38.8174 31.5529 38.0057C31.5531 38.1305 31.6154 38.2553 31.6777 38.3489L31.6467 38.3801Z" fill="#F7F75C"/>
<path d="M47.3918 53.7137C48.9458 53.9923 48.1425 57.2396 47.429 58.021C46.4673 59.0524 44.5092 58.6495 43.2976 58.8073C42.3035 58.9336 41.3712 58.8413 40.3767 58.749C38.6053 58.5331 36.7718 58.3173 35.0005 58.195C33.1671 58.0727 31.6764 58.6055 30.1866 59.7313C29.2244 60.4506 26.6177 62.7953 26.2722 60.2052C26.0525 58.676 27.5403 56.1769 28.5953 55.1453C29.7433 54.02 32.0102 53.0491 33.5953 53.3902C35.1184 53.7625 36.5176 54.4472 38.1026 54.6634C40.8375 55.0653 42.9198 55.4056 45.5283 54.3094C46.0562 54.0901 46.8323 53.5896 47.4228 53.7136L47.3918 53.7137Z" fill="#D8B212"/>
<path d="M33.4416 55.1028C32.3224 54.6674 31.0791 54.3883 29.8992 54.9518C28.3467 55.7344 27.23 56.9845 26.5175 58.4838C26.9817 57.2034 27.8498 55.86 28.5634 55.1722C29.7115 54.0469 31.9783 53.0761 33.5635 53.4171C35.0865 53.7895 36.4858 54.4741 38.0708 54.6904C38.2572 54.6901 38.4437 54.7522 38.6302 54.7832C37.1712 55.7529 35.3692 55.8803 33.4416 55.1028Z" fill="#B7970F"/>
<path opacity="0.72" d="M32.0781 57.544C31.5504 57.8881 30.7116 58.0454 30.3391 58.2956C29.8425 58.6397 29.0673 59.7332 28.3837 59.7654C26.7369 59.7678 28.8467 57.6111 29.2501 57.2671C29.7155 56.7983 33.1 55.1703 32.6055 56.9814C32.5126 57.2312 32.3265 57.4188 32.0781 57.5752L32.0781 57.544Z" fill="#F4C134"/>
<path d="M47.4282 58.0099C46.4664 59.0413 44.5083 58.6384 43.2968 58.7962C42.3026 58.9225 41.3703 58.8302 40.3759 58.738C38.6045 58.522 36.7709 58.3062 34.9996 58.1839C34.4092 58.1535 33.8811 58.1855 33.353 58.3111C34.4699 57.1546 35.2443 55.4368 35.1177 53.8763C36.0814 54.1871 37.0451 54.529 38.1018 54.6835C40.8367 55.0854 42.919 55.4257 45.5275 54.3295C46.0554 54.1103 46.8315 53.6097 47.422 53.7337C48.976 54.0124 48.1728 57.2597 47.4593 58.0411L47.4282 58.0099Z" fill="#AFAF08"/>
<path d="M47.4282 58.0108C47.087 58.3859 46.6211 58.5426 46.1241 58.6369C46.7139 58.2303 46.9928 57.7305 46.5568 57.0445C45.7162 55.8596 44.0388 56.2053 42.8273 56.4256C40.1558 56.8664 37.4827 56.246 34.8719 55.6879C35.0574 55.0946 35.1497 54.439 35.1177 53.8148C36.0814 54.1255 37.0451 54.4675 38.1018 54.622C40.8367 55.0239 42.919 55.3642 45.5275 54.268C46.0554 54.0487 46.8314 53.5482 47.422 53.6722C48.976 53.9509 48.1728 57.1982 47.4593 57.9796L47.4282 58.0108Z" fill="#88990A"/>
<path opacity="0.34" d="M26.4567 59.5093C27.1423 60.9129 28.7259 60.1927 29.6883 59.5671C33.2583 57.3146 36.1472 56.7486 40.2508 58.2409C40.9037 58.4897 41.5254 58.6761 42.116 58.8625C41.5257 58.8634 40.9663 58.8017 40.3758 58.7402C38.6044 58.5242 36.7709 58.3084 34.9996 58.1861C33.1662 58.0639 31.6755 58.5966 30.1857 59.7224C29.2235 60.4417 26.6168 62.7865 26.2713 60.1963C26.2708 59.8841 26.2703 59.5408 26.363 59.1661C26.3631 59.2597 26.4255 59.3845 26.4878 59.5093L26.4567 59.5093Z" fill="#FFFB73"/>
<path d="M47.1716 52.0245C48.7563 52.0847 48.7205 48.7761 48.1909 47.8405C47.4745 46.593 45.4858 46.5647 44.3355 46.1293C43.4028 45.7561 42.4705 45.6326 41.476 45.5092C39.7046 45.262 37.871 45.0774 36.0995 44.799C34.297 44.5207 32.9596 43.6487 31.7768 42.2146C30.9987 41.2793 29.006 38.4418 28.0463 40.8778C27.458 42.3144 28.3941 45.0598 29.1416 46.2761C30.0136 47.6482 31.9732 49.1436 33.6201 49.1412C35.1426 49.139 36.6646 48.7935 38.2806 48.9472C41.0463 49.1617 43.1283 49.3148 45.43 50.997C45.8966 51.3084 46.5501 51.9942 47.1405 52.0246L47.1716 52.0245Z" fill="#D8B212"/>
<path opacity="0.34" d="M33.928 47.4476C32.7164 47.6054 31.4425 47.6385 30.447 46.7971C29.1404 45.6753 28.3304 44.2095 27.9552 42.587C28.0814 43.9289 28.6429 45.4576 29.1723 46.2683C30.0443 47.6405 32.004 49.1359 33.6508 49.1335C35.1733 49.1313 36.6953 48.7858 38.3113 48.9395C38.4977 48.9392 38.6841 48.939 38.8706 48.9387C37.657 47.6919 35.9472 47.1326 33.8969 47.4164L33.928 47.4476Z" fill="#FFFB73"/>
<path opacity="0.72" d="M33.1163 44.7761C32.6496 44.3397 31.9034 43.9975 31.5922 43.6234C31.1876 43.187 30.6576 41.9392 30.0359 41.7528C28.4196 41.3494 30.008 43.9378 30.2883 44.4368C30.6309 44.9669 33.555 47.3037 33.4902 45.4622C33.4898 45.2125 33.3342 44.9942 33.1163 44.7761Z" fill="#F4C134"/>
<path d="M48.1905 47.8333C47.4741 46.5858 45.4855 46.5574 44.3352 46.1221C43.4025 45.7489 42.4701 45.6254 41.4757 45.502C39.7042 45.2548 37.8707 45.0702 36.0992 44.7918C35.5398 44.699 35.0113 44.5125 34.5138 44.2947C35.3858 45.6668 35.6992 47.5079 35.2664 49.038C36.2605 48.9429 37.2858 48.8478 38.3424 48.9711C41.1081 49.1856 43.1901 49.3387 45.4919 51.0209C45.9584 51.3323 46.6119 52.0181 47.2023 52.0484C48.7871 52.1086 48.7512 48.8001 48.2217 47.8644L48.1905 47.8333Z" fill="#AFAF08"/>
<path opacity="0.34" d="M48.1906 47.8405C47.9414 47.4039 47.5371 47.1236 47.0707 46.9058C47.5375 47.4357 47.7248 47.9973 47.1351 48.5287C46.0491 49.5291 44.4944 48.751 43.344 48.2845C40.8257 47.2581 38.0913 47.1996 35.3879 47.1099C35.4511 47.7965 35.3898 48.4208 35.2664 49.014C36.2605 48.919 37.2858 48.8238 38.3424 48.9472C41.1081 49.1617 43.1901 49.3148 45.4919 50.9969C45.9584 51.3084 46.6119 51.9941 47.2023 52.0245C48.7871 52.0847 48.7512 48.7761 48.2217 47.8405L48.1906 47.8405Z" fill="#FFFB73"/>
<path opacity="0.41" d="M28.0779 41.5496C29.0704 40.3309 30.4702 41.4213 31.2481 42.2006C34.2043 45.224 36.8783 46.4374 41.2587 45.9317C41.9111 45.8683 42.5635 45.805 43.185 45.8041C42.6254 45.6488 42.035 45.5872 41.4445 45.5257C39.6731 45.2785 37.8396 45.0939 36.0681 44.8155C34.2655 44.5372 32.9281 43.6651 31.7453 42.2311C30.9672 41.2958 28.9745 38.4583 28.0148 40.8943C27.8909 41.1754 27.8603 41.5187 27.8609 41.8933C27.9229 41.7996 27.9848 41.6746 28.0468 41.5809L28.0779 41.5496Z" fill="#8C7929"/>
<path d="M10.2764 21.8325C5.99176 24.1172 4.28986 29.0201 1.81022 33.2686C-1.84722 39.5477 1.11157 44.3814 2.61242 50.9028C3.64408 55.2711 5.48594 61.2614 8.81517 64.4091C14.9446 70.1434 17.0725 58.9974 22.6384 61.7985C18.6365 66.1741 15.2607 73.8573 13.8093 80.0708C11.8327 88.47 19.9825 94.6384 26.0469 98.4064C35.8432 104.385 46.1599 104.963 54.7233 96.2739C56.771 94.1797 57.9794 91.8369 58.7833 89.0266C59.618 86.0914 59.5198 82.6893 59.1737 79.6934C59.3938 81.441 70.1762 81.7688 71.7295 81.5793C79.0612 80.6948 87.6622 76.5623 90.8523 69.4099C92.3079 66.0992 92.1791 62.9469 92.081 59.576C91.7229 48.2462 82.5715 36.9603 71.9105 34.6035C66.1292 33.3321 58.2699 34.6231 53.8014 38.6872C59.9173 35.0265 62.8899 27.8432 62.8798 20.8827C62.8091 14.89 58.7566 5.7816 53.687 2.38668C50.4523 0.206431 45.7622 1.36807 42.3455 2.21574C32.9961 4.50776 21.576 14.5123 24.6371 25.6198C23.7 22.2189 16.9857 20.2934 14.0034 20.7346C12.5744 20.924 11.3943 21.3315 10.3386 21.8948L10.2764 21.8325Z" fill="url(#paint0_radial_4_2901)"/>
<path opacity="0.52" d="M22.5761 61.7109C17.0415 59.097 14.9133 70.0558 8.81506 64.3839C5.48583 61.2361 3.6129 55.246 2.61231 50.8776C1.11151 44.3874 -1.84733 39.5225 1.81012 33.2434C4.28975 28.9948 5.99166 24.0919 10.2763 21.8072C11.3319 21.2439 12.5121 20.8364 13.9411 20.6471C15.5565 20.3951 18.2293 20.8594 20.5301 21.8861C19.7235 22.7612 20.5351 25.3507 21.0962 26.5672C22.4364 29.4057 24.0243 31.682 25.6438 34.3015C22.7837 33.2444 16.2431 22.5165 12.9849 25.5489C12.1781 26.2992 12.6149 27.4846 12.0258 28.3594C11.8087 28.7031 10.0085 30.0478 9.45015 30.7041C7.46479 32.9543 6.81364 33.8917 9.08531 36.2606C7.37757 37.1058 4.24083 38.1715 5.64284 40.7914C6.7644 42.8498 10.741 42.4071 12.6378 43.4344C10.6811 43.9991 8.66193 44.3453 7.39073 46.2512C10.5626 48.0257 14.6936 46.9585 18.143 47.2345C22.0275 47.541 25.8512 48.8777 29.3645 50.3708C25.5434 50.8758 21.9672 48.8208 18.2069 48.4205C16.622 48.2667 15.1615 48.144 13.6709 48.7704C13.1741 48.9896 9.9157 51.8971 10.2265 51.9591C14.9507 52.8574 5.26341 57.803 8.68478 60.2015C10.2089 61.2918 15.5488 58.2252 17.0391 57.4427C23.9008 53.8121 28.2184 52.8383 35.6477 55.0125C33.7844 55.7019 31.4835 54.6128 29.3095 55.3338C27.0734 56.0549 25.0869 57.5248 23.8778 59.4305C23.4438 60.0866 23.0099 60.8676 22.5451 61.7422L22.5761 61.7109Z" fill="#F9FF76"/>
<path opacity="0.52" d="M55.5525 24.8334C57.3505 21.9592 62.3075 11.8703 55.3536 16.1877C50.4796 19.1912 46.4789 24.4095 42.8187 28.8158C42.565 25.2267 47.4671 20.1943 49.5136 17.2886C50.5369 15.8201 54.4155 12.0377 53.8843 10.0097C53.3528 7.73187 51.3976 9.32653 49.6568 8.82963C50.1204 7.08104 50.8325 5.33208 51.2961 3.58349C49.0908 4.11728 46.8248 5.71242 45.3668 7.40002C44.1261 8.86881 43.1364 12.0852 41.0237 12.1819C41.3934 9.99641 42.1672 7.90405 42.7854 5.68703C31.4449 6.20277 29.811 15.132 29.9489 24.6518C27.0858 21.5034 28.57 16.476 28.6271 12.9488C28.6262 12.3246 28.5319 11.6068 28.4377 10.889C32.0668 6.54521 37.4376 3.32255 42.2521 2.12952C45.6688 1.31306 50.3279 0.120252 53.5936 2.30046C58.6942 5.69533 62.7468 14.8349 62.7864 20.7965C62.7926 25.1039 61.6494 29.569 59.2931 33.1619C58.765 33.2251 58.2057 33.2571 57.6464 33.2579C53.3583 33.1392 50.0659 33.9555 46.3721 36.5515C49.9685 31.0528 58.2009 29.9485 60.2734 23.422C58.5007 22.3633 57.0115 23.8637 55.5214 24.8022L55.5525 24.8334Z" fill="#F9FF76"/>
<path opacity="0.52" d="M92.0498 59.4869C92.1478 62.8578 92.2767 66.0101 90.8211 69.3208C89.8919 71.3822 88.5273 73.1633 86.9138 74.7263C84.3342 74.293 81.8161 73.4539 79.7953 72.614C81.6279 72.2056 83.8959 71.9839 85.7903 71.3257C83.3963 70.3303 81.4689 69.6776 79.4159 68.0887C81.4351 67.7424 89.64 69.104 89.1373 65.2031C88.5158 65.204 87.8006 64.7992 87.1481 64.8314C88.2037 64.268 88.1098 63.7376 88.6366 62.8004C87.3933 62.4589 86.1817 62.6479 84.9381 62.1503C86.1492 61.6491 87.2353 60.6175 87.3264 59.2128C83.5663 58.9373 80.6791 60.627 76.8559 59.7273C72.5666 58.7347 68.4939 57.1799 64.2972 55.7813C68.2452 57.1178 72.6565 56.456 76.6962 56.6999C79.3065 56.8522 84.123 57.0949 84.8948 53.6292C85.6975 50.0697 80.5057 48.1108 78.0186 47.178C79.0743 46.6459 80.4725 46.6126 81.6217 46.3301C75.9011 43.9973 69.4366 42.883 63.3155 42.923C66.2968 41.8262 68.0673 41.4179 71.1436 41.5383C73.7227 41.6283 79.2248 43.2434 81.2432 42.3665C78.9989 37.4693 70.9169 35.14 65.0738 34.0872C67.435 33.8653 69.8277 34.0179 71.9102 34.4831C82.6024 36.8399 91.7227 48.1259 92.0808 59.4557L92.0498 59.4869Z" fill="#F9FF76"/>
<path opacity="0.52" d="M26.0779 98.3054C22.5637 96.1568 18.3647 93.1352 15.8113 89.3621C16.71 87.6753 17.8574 86.1442 18.974 84.7068C20.1883 86.4842 20.0063 89.5121 21.4997 90.8521C22.765 84.8574 23.4399 78.8323 28.1867 73.8314C26.4521 77.6107 25.5886 82.1378 25.5013 86.258C25.5026 87.132 25.9841 97.8998 27.226 97.2113C29.8961 95.7092 28.8609 88.9375 31.9647 86.5921C30.7899 90.6515 28.5347 99.7689 34.253 100.51C37.3297 100.911 37.9784 98.2259 40.1532 98.0354C41.4891 97.9087 42.1123 99.1251 43.5718 98.5299C44.5655 98.1539 45.4333 96.5921 45.8981 95.7174C46.6785 98.2133 49.877 96.8666 50.7445 95.1174C51.8288 92.9309 50.2418 91.2477 49.1828 89.5013C46.5665 85.1665 45.0696 81.3606 44.9379 76.2419C47.9273 80.7635 52.255 86.8126 53.9403 91.9291C56.8834 85.9007 52.7725 79.3519 49.9685 74.1122C47.2269 69.0596 44.7952 63.4448 40.378 59.9865C46.9969 60.3827 52.0411 67.7105 54.8142 73.0752C57.4004 78.0967 58.4649 83.6823 58.7527 89.3002C57.9486 91.9233 56.771 94.1411 54.8164 96.1416C46.253 104.831 35.9364 104.284 26.1401 98.2741L26.0779 98.3054Z" fill="#F9FF76"/>
<path d="M71.8793 34.5215C76.7902 35.5757 81.331 38.5656 84.9101 42.5869C82.5149 40.78 71.6659 37.331 68.8377 36.8981C59.3897 35.4135 54.9871 42.0682 53.0955 44.724C52.3513 45.7863 50.7088 48.7851 49.029 47.4454C47.9402 46.573 48.6529 45.1986 49.2419 44.2613C51.1642 41.3558 53.9888 39.3228 56.2845 36.8225C60.8172 34.1941 67.0616 33.436 71.8793 34.5215Z" fill="#F9FF76"/>
<path d="M45.1119 67.6024C45.3644 70.3176 45.648 73.0951 45.683 75.8106C45.6799 73.6881 44.2461 70.5377 43.6837 68.416C43.2776 66.8872 42.4013 62.5186 40.5365 62.2092C35.9056 61.3731 35.551 74.0773 35.1819 76.6685C34.7816 79.1973 34.7857 82.0065 34.0434 84.4109C33.2944 82.1335 32.9487 79.4497 33.1006 77.046C33.1308 76.3905 34.0534 69.8032 34.4885 69.8338C32.7481 69.6178 30.9846 74.8642 30.4893 76.1758C30.4843 72.68 32.7773 68.3069 34.0466 65.0589C35.223 62.0295 36.1194 58.7821 39.7851 58.215C43.7303 57.585 48.2391 59.9195 50.9152 62.6624C55.7696 67.6495 57.7677 74.2638 60.4489 80.5025C59.7029 80.2851 59.1742 79.9737 59.1737 79.6304C59.5198 82.6263 59.6179 86.0284 58.7832 88.9636C57.9794 91.774 56.771 94.1167 54.7232 96.2109C50.2865 100.743 45.3178 102.748 40.2221 102.786C43.5778 102.75 57.3641 96.0198 56.4121 82.2875C55.4298 69.0234 44.7301 61.4228 44.7607 61.0482C44.7638 63.2331 44.8912 65.3866 45.0808 67.6025L45.1119 67.6024Z" fill="#F9FF76"/>
<path d="M12.293 62.9103C14.9034 63.1875 19.6837 59.8408 21.95 58.4954C23.8128 57.4315 25.022 55.5882 26.9157 54.4618C24.1177 53.3733 20.328 54.1279 17.314 54.1322C20.4189 52.5047 23.836 51.9692 27.3477 52.3387C28.6839 52.4616 31.0776 53.2385 32.289 52.9246C35.8919 51.983 27.6214 48.2494 26.6267 47.9387C20.7201 45.9183 14.659 44.4913 9.6199 40.6905C12.3557 41.6854 15.2153 42.3992 18.0125 42.9258C19.8774 43.2976 21.8352 43.5133 23.6692 44.0101C25.068 44.3826 26.2812 45.3485 27.6797 45.565C27.2103 43.2871 25.2809 41.1986 24.3146 39.0775C26.0577 41.2287 27.8314 43.0053 30.071 44.6876C32.7149 46.6502 44.9033 52.3134 39.0055 56.4108C37.0499 57.7557 34.6268 58.1026 32.3589 58.3243C28.6309 58.7667 25.4314 59.4268 22.3585 61.6785C16.9798 59.3765 14.8201 70.0232 8.8151 64.4136C7.13497 62.8553 5.298 60.2673 4.92186 57.9893C4.98441 58.2701 6.57502 62.3879 12.2931 62.9727L12.293 62.9103Z" fill="#F9FF76"/>
<path d="M28.3208 37.6037C28.2541 34.3888 27.9722 32.8286 26.1968 29.8659C24.7641 27.4958 24.5436 25.4048 24.4811 25.1864C23.3559 20.5685 24.6856 16.1656 27.2903 12.4475C26.5183 15.7572 25.7808 21.4702 26.8426 25.183C27.717 28.2719 29.585 30.7974 30.3662 33.8552C30.9912 36.3513 31.7428 40.3767 34.8506 40.8404C33.4789 37.6587 33.132 34.1321 33.0649 30.6676C32.9974 26.9845 32.9007 24.55 31.1556 21.0255C34.3264 22.051 34.9572 28.5424 35.2096 31.1951C35.6189 34.9401 35.1582 38.6863 38.3007 41.6158C39.4795 40.3031 40.2221 38.1172 40.6858 36.4622C41.0295 37.8039 40.1617 39.3033 40.5674 40.5513C41.3787 42.9223 45.9099 39.2326 47.4625 38.5125C50.816 36.947 54.388 36.0679 57.9287 35.0016C57.3393 35.6891 56.7188 36.3455 56.036 36.9083C53.7078 38.4099 51.5984 40.8475 50.017 43.0971C48.4666 45.3155 48.1287 48.0315 46.6406 50.3746C44.4085 53.9049 38.1587 50.8862 35.5774 49.2669C31.8453 46.9001 28.3896 42.1919 28.2898 37.6349L28.3208 37.6037Z" fill="#E2B705"/>
<path d="M14.3782 86.7462C13.5363 84.6873 13.2223 82.4404 13.8092 80.005C15.2607 73.8227 18.6364 66.1082 22.6384 61.7327C24.3438 59.2956 26.0807 57.1394 28.3477 56.2309C31.7636 54.8527 37.7937 56.3422 41.5845 56.3679C44.9092 56.3632 44.1955 56.9884 46.1802 54.3013C48.0409 51.8016 47.6316 48.0878 49.4616 45.8066C51.5086 43.2442 56.7903 42.8308 59.7729 42.6393C57.8162 43.2039 53.9967 44.8637 53.0982 46.6753C60.9367 52.4385 70.0338 47.5873 78.3326 49.3857C76.7474 49.0447 71.8721 51.143 70.0083 51.489C67.8649 51.8979 66.0325 52.4935 63.8573 52.3718C61.3093 52.2506 55.465 50.3239 54.0715 53.6032C55.5959 54.912 58.1752 55.1892 60.0407 55.998C57.8053 57.2498 55.5973 55.942 53.2039 55.3212C54.9207 60.781 64.3083 63.4518 68.9713 64.9745C65.4585 63.8247 62.041 64.1417 58.4962 62.3365C55.6666 60.8735 52.7431 58.9426 49.6349 58.2604C50.0748 61.6931 53.1554 64.7476 55.0858 67.4915C57.2653 70.6097 59.9106 73.5087 63.5169 74.9081C69.5794 77.3028 76.6062 80.4139 85.9518 75.5625C81.9483 78.8768 76.5757 80.851 71.7293 81.451C70.176 81.6405 59.3625 81.3127 59.1736 79.5651C59.268 80.4077 55.7112 70.2998 51.6023 65.1556C48.7386 61.6014 43.6988 57.3637 38.7285 58.1512C36.8024 58.4349 35.4684 59.9038 34.5076 61.5595C33.9496 62.4655 32.0294 66.8068 32.6211 67.7424C31.5312 66.0897 31.2779 62.8127 31.648 60.8769C25.8448 65.9106 23.1243 75.5281 20.7116 83.1163C19.2412 76.1267 22.4332 70.2853 24.9719 63.9142C20.1922 67.6666 17.3401 72.1654 15.4841 77.9425C14.587 80.7217 14.5914 83.7494 14.3782 86.7462Z" fill="#E2B705"/>
<path d="M41.5847 56.4431C42.3926 56.4732 43.2002 56.3471 43.7587 55.7845C44.1932 55.3781 44.6268 54.4099 44.9989 53.8787C45.8051 52.7227 46.4558 51.4732 47.262 50.286C47.944 49.2238 48.1289 48.131 48.7488 47.1001C49.9889 45.1319 52.6901 43.7547 54.9897 43.9386C53.3758 45.2207 50.6745 46.5979 50.3049 48.8458C51.269 49.4062 52.2625 48.843 53.2887 49.4033C52.3877 49.4671 51.1149 50.2804 50.4945 50.9992C49.2846 52.3743 50.1239 52.6228 51.1506 53.4953C52.9239 55.0534 53.7977 57.6428 55.4778 59.2011C53.9223 57.9236 51.496 56.0231 49.476 55.7763C45.6534 55.2512 48.2394 60.1791 49.4533 61.5819C46.3745 59.776 43.2962 58.251 39.6606 58.1002C39.94 57.9437 39.8776 57.7565 40.0637 57.5378C38.3227 56.8224 36.4576 56.2944 34.6856 55.6727C36.0535 56.1702 38.3216 56.0733 39.8133 56.2584C40.3416 56.3201 40.9632 56.4128 41.5536 56.4432L41.5847 56.4431Z" fill="#CEA90F"/>
<path d="M48.9711 49.7719C49.3767 50.9574 47.1439 53.957 46.0568 54.2707C44.8145 54.6159 43.2596 53.7754 42.2335 53.215C39.7457 51.814 37.4436 49.9133 35.421 47.8874C34.1141 46.5783 33.9567 45.1428 33.364 43.4893C32.74 41.7735 30.9371 41.2455 29.2899 40.9357C27.1764 40.533 26.2408 38.131 28.3519 36.8794C30.3699 35.7216 33.3847 36.3415 35.2507 37.4937C36.1837 38.0854 37.117 38.8644 37.4294 40.0501C37.7418 41.2357 36.7169 41.5493 36.6873 42.5794C36.6274 44.1089 38.5248 45.542 39.6755 46.227C41.6348 47.4415 43.7491 48.4372 46.018 48.871C46.7017 48.9948 48.7215 49.0543 48.9711 49.7407L48.9711 49.7719Z" fill="#C3A00F"/>
<path d="M46.0568 54.262C45.5288 54.4188 44.9694 54.3572 44.4099 54.1707C44.5962 54.1081 44.7825 54.0142 44.9377 53.8579C45.279 53.5765 45.4028 53.2017 45.4333 52.7959C45.5572 52.5772 45.5568 52.2963 45.3701 52.1093C45.2763 51.7037 45.0583 51.3606 44.7783 51.1113C42.3206 49.0236 38.2501 48.967 36.8161 45.6917C36.1303 44.1321 36.1591 42.5714 35.784 41.0425C35.7837 40.7928 35.7834 40.5743 35.6898 40.3247C34.8154 37.2983 29.3444 35.6519 27.2661 38.0895C27.3897 37.6212 27.7308 37.1525 28.3518 36.8082C30.3698 35.6505 33.3846 36.2704 35.2506 37.4226C36.1836 38.0143 37.1169 38.7932 37.4293 39.9789C37.7417 41.1645 36.7168 41.4781 36.6872 42.5082C36.6273 44.0377 38.5247 45.4708 39.6754 46.1558C41.6347 47.3703 43.749 48.3661 46.0179 48.7998C46.7016 48.9237 48.7214 48.9832 48.971 49.6695C49.3766 50.855 47.1438 53.8547 46.0567 54.1684L46.0568 54.262Z" fill="#AF8E02"/>
<path d="M46.056 54.2708C44.8137 54.6159 43.2588 53.7754 42.2327 53.2151C39.7449 51.8141 37.4428 49.9134 35.4202 47.8874C34.6423 47.1082 34.2371 46.2349 33.9561 45.2677C35.1055 45.0787 36.1609 44.3593 36.8741 43.3595C37.342 44.6073 38.7728 45.6353 39.7058 46.227C41.6651 47.4415 43.7794 48.4372 46.0483 48.871C46.732 48.9948 48.7518 49.0543 49.0013 49.7407C49.407 50.9262 47.1741 53.9258 46.087 54.2395L46.056 54.2708Z" fill="#A1A300"/>
<path d="M46.056 54.2708C44.8137 54.6159 43.2588 53.7754 42.2327 53.2151C42.1083 53.1528 41.9838 53.0281 41.8594 52.9659C43.0404 53.1515 45.1225 53.3045 44.9029 51.869C44.6206 50.0279 42.3517 49.563 40.8595 49.0657C39.1186 48.444 36.412 46.1381 36.3778 43.9532C36.5329 43.7657 36.719 43.5782 36.8741 43.3907C37.342 44.6385 38.7728 45.6665 39.7058 46.2582C41.6651 47.4727 43.7794 48.4685 46.0483 48.9022C46.7321 49.026 48.7518 49.0856 49.0014 49.7719C49.407 50.9574 47.1742 53.957 46.0871 54.2707L46.056 54.2708Z" fill="#808705"/>
<path opacity="0.72" d="M31.771 38.2057C33.1388 38.6407 33.9168 39.4824 34.4157 40.7302C34.6341 41.3541 35.413 42.82 34.4503 43.1647C33.7337 41.8548 32.6126 40.1085 30.9964 39.7363C30.4058 39.6123 29.7847 39.8317 29.194 39.5828C28.3546 39.2407 28.0739 38.5856 28.881 38.0226C29.6259 37.4597 30.9938 37.9571 31.802 38.1745L31.771 38.2057Z" fill="#E5B623"/>
<path opacity="0.43" d="M27.3907 38.9517C28.5116 40.5108 30.8414 40.1329 32.3037 41.4417C34.6371 43.5296 34.5486 46.8071 37.2548 48.8321C38.8411 50.0159 39.9926 51.2627 41.0508 52.4785C38.9981 51.1705 37.1315 49.5814 35.3891 47.8984C34.0822 46.5893 33.9247 45.1537 33.332 43.5003C32.7081 41.7845 30.9052 41.2564 29.2579 40.9467C27.9214 40.6677 27.0499 39.6077 27.1416 38.5463C27.1728 38.6712 27.2352 38.8271 27.3597 38.983L27.3907 38.9517Z" fill="#F7F75C"/>
<path d="M48.9071 48.6017C48.6909 49.5072 46.0511 50.4162 45.243 50.1989C44.3414 49.8881 43.7182 48.6716 43.3132 47.8919C42.3472 46.0205 41.6917 43.8678 41.2847 41.7459C41.0031 40.4041 41.5299 39.4358 41.8388 38.1868C42.1476 36.8442 41.2761 35.7842 40.3737 34.8803C39.2534 33.727 39.6857 31.8536 41.4881 31.9759C43.1972 32.0983 44.8775 33.7502 45.5011 35.2475C45.844 36.0273 46.0938 36.9009 45.8154 37.7441C45.4749 38.6185 44.7288 38.4011 44.2946 38.9636C43.6124 39.9322 44.2052 41.5856 44.6105 42.5214C45.3274 44.081 46.1995 45.578 47.4442 46.7935C47.8176 47.1675 49.0617 48.0397 48.9071 48.6017Z" fill="#C3A00F"/>
<path d="M45.2428 50.2061C44.8698 50.0818 44.5276 49.8014 44.2475 49.4584C44.4028 49.4582 44.5582 49.458 44.7446 49.4577C45.0242 49.4261 45.3036 49.2384 45.4586 48.9885C45.6449 48.8946 45.7689 48.7384 45.7065 48.5512C45.8304 48.2701 45.83 47.9579 45.7674 47.6771C45.1426 45.3683 42.6233 43.6239 43.0856 41.0014C43.3013 39.7526 43.9835 38.784 44.3858 37.6597C44.4478 37.5036 44.5408 37.3786 44.6026 37.16C45.3141 34.9741 42.6061 31.6382 40.2766 32.2658C40.5559 32.0157 40.9596 31.9215 41.4568 31.952C43.166 32.0744 44.8462 33.7262 45.4698 35.2236C45.8128 36.0034 46.0626 36.877 45.7841 37.7201C45.4436 38.5946 44.6976 38.3772 44.2634 38.9396C43.5812 39.9082 44.1739 41.5617 44.5792 42.4975C45.2961 44.0571 46.1683 45.5541 47.4129 46.7696C47.7863 47.1436 49.0304 48.0158 48.8759 48.5778C48.6597 49.4833 46.0199 50.3923 45.2117 50.175L45.2428 50.2061Z" fill="#AF8E02"/>
<path d="M45.2422 50.2062C44.3407 49.8954 43.7175 48.679 43.3124 47.8992C42.3465 46.0278 41.6909 43.8751 41.2839 41.7532C41.0963 40.9419 41.2817 40.2238 41.4671 39.5368C42.2444 39.879 43.2076 39.8776 44.0772 39.533C43.83 40.501 44.2668 41.7489 44.6407 42.4975C45.3576 44.0571 46.2298 45.5541 47.4744 46.7696C47.8478 47.1436 49.092 48.0158 48.9374 48.5778C48.7212 49.4833 46.0814 50.3923 45.2732 50.175L45.2422 50.2062Z" fill="#A1A300"/>
<path d="M45.2422 50.1989C44.3406 49.8881 43.7174 48.6717 43.3124 47.892C43.3122 47.7983 43.25 47.7048 43.1566 47.6113C43.841 48.2033 45.0543 49.1692 45.5189 48.2009C46.1075 46.9515 44.8939 45.736 44.1779 44.7694C43.3685 43.6781 42.619 41.0885 43.5181 39.7451C43.7045 39.6824 43.8909 39.6509 44.0772 39.557C43.83 40.5249 44.2668 41.7728 44.6407 42.5214C45.3576 44.081 46.2298 45.578 47.4744 46.7935C47.8478 47.1675 49.092 48.0397 48.9374 48.6017C48.7212 49.5072 46.0814 50.4162 45.2732 50.1989L45.2422 50.1989Z" fill="#808705"/>
<path opacity="0.72" d="M43.0441 34.2619C43.6978 35.1037 43.8854 35.9462 43.6383 36.9454C43.5147 37.4138 43.3922 38.6625 42.6462 38.4762C42.7378 37.3837 42.7667 35.823 41.8953 34.9191C41.5841 34.5762 41.1179 34.452 40.8377 34.0466C40.464 33.5165 40.5564 32.9546 41.3021 32.9535C42.0168 32.9525 42.6083 33.7631 43.0441 34.2931L43.0441 34.2619Z" fill="#E5B623"/>
<path opacity="0.43" d="M40.0281 32.89C40.0613 34.3257 41.6781 35.1037 42.0219 36.4766C42.6156 38.7855 41.1891 40.754 42.0315 43.1562C42.4996 44.5601 42.75 45.8082 42.876 46.9941C42.1589 45.3409 41.6281 43.5313 41.2527 41.7839C40.9712 40.4421 41.498 39.4738 41.8069 38.2248C42.1157 36.8822 41.2442 35.8222 40.3418 34.9184C39.626 34.1703 39.5313 33.1404 40.0587 32.5466C40.0278 32.6403 39.9969 32.7652 40.0282 32.9212L40.0281 32.89Z" fill="#F7F75C"/>
<path d="M45.4965 54.1895C46.6477 55.2491 44.3518 57.5933 43.2957 57.8758C41.9291 58.2523 40.4668 56.881 39.3785 56.3832C38.4458 55.9788 37.6682 55.4181 36.8905 54.7949C35.4906 53.6733 34.0286 52.5205 32.5667 51.4926C31.0427 50.4335 29.4886 50.0924 27.6556 50.2823C26.444 50.4089 23.0581 51.0381 24.08 48.6644C24.6994 47.2589 27.2454 45.9131 28.6742 45.5989C30.2584 45.2221 32.6825 45.5931 33.8649 46.7151C34.985 47.806 35.7948 49.1157 37.0391 50.144C39.1856 51.8888 40.8034 53.2911 43.5694 53.7241C44.1288 53.8169 45.0609 53.7843 45.4965 54.1895Z" fill="#D8B212"/>
<path d="M32.8726 48.0891C32.1255 47.1226 31.2542 46.2187 29.949 46.1269C28.2398 45.9733 26.5937 46.4751 25.1968 47.351C26.252 46.5068 27.7114 45.818 28.6743 45.5981C30.2584 45.2213 32.6826 45.5923 33.8649 46.7143C34.9851 47.8051 35.7948 49.1149 37.0392 50.1431C37.1636 50.2678 37.3191 50.3612 37.4436 50.4859C35.7037 50.5508 34.1178 49.7416 32.8415 48.0891L32.8726 48.0891Z" fill="#B7970F"/>
<path opacity="0.72" d="M30.4508 49.4421C29.8294 49.443 29.0211 49.1633 28.555 49.1952C27.9647 49.196 26.7226 49.7284 26.1318 49.4171C24.7012 48.5765 27.652 47.8231 28.18 47.6975C28.8013 47.5717 32.5305 47.9409 31.1651 49.2226C30.979 49.4102 30.7305 49.4417 30.4197 49.4422L30.4508 49.4421Z" fill="#F4C134"/>
<path d="M43.2957 57.8758C41.9291 58.2523 40.4668 56.881 39.3785 56.3832C38.4458 55.9788 37.6682 55.4181 36.8905 54.7949C35.4906 53.6733 34.0286 52.5205 32.5667 51.4926C32.0691 51.1499 31.6026 50.9009 31.0742 50.7144C32.6583 50.3376 34.1482 49.2742 34.9229 47.8373C35.5766 48.6166 36.1992 49.4273 37.0391 50.1128C39.1856 51.8576 40.8033 53.2598 43.5694 53.6928C44.1288 53.7857 45.0609 53.7531 45.4965 54.1583C46.6477 55.2179 44.3517 57.5621 43.2957 57.8446L43.2957 57.8758Z" fill="#AFAF08"/>
<path d="M43.2957 57.8848C42.7988 58.0416 42.3326 57.9486 41.8352 57.7621C42.5809 57.761 43.0775 57.4169 43.0143 56.6367C42.95 55.1698 41.3024 54.6103 40.1521 54.1438C37.6337 53.0862 35.6424 51.185 33.7133 49.3774C34.2098 48.9398 34.613 48.4398 34.923 47.9087C35.5766 48.6881 36.1992 49.4987 37.0392 50.1842C39.1856 51.929 40.8034 53.3313 43.5694 53.7643C44.1289 53.8571 45.061 53.8246 45.4966 54.2297C46.6477 55.2893 44.3518 57.6336 43.2958 57.916L43.2957 57.8848Z" fill="#88990A"/>
<path opacity="0.34" d="M24.6075 48.1705C24.4544 49.7314 26.2258 49.9473 27.3443 49.9145C31.57 49.846 34.3058 50.8721 37.0762 54.3327C37.512 54.8627 37.9166 55.3615 38.3523 55.8291C37.8858 55.5176 37.4192 55.175 36.9526 54.8011C35.5527 53.6794 34.0907 52.5267 32.6288 51.4987C31.1048 50.4397 29.5507 50.0986 27.7177 50.2885C26.5061 50.4151 23.1202 51.0442 24.1421 48.6706C24.266 48.3895 24.4831 48.1083 24.7313 47.827C24.6693 47.9207 24.6384 48.0456 24.6386 48.1705L24.6075 48.1705Z" fill="#FFFB73"/>
<path d="M46.1779 52.6523C47.5153 53.5243 49.158 50.6816 49.2186 49.6203C49.2477 48.2156 47.5372 47.1256 46.8211 46.1591C46.1985 45.3796 45.483 44.7564 44.6742 44.1333C43.2744 43.0117 41.8124 41.8901 40.4435 40.706C39.0436 39.5219 38.3889 38.0558 38.1067 36.2459C37.9185 35.0601 37.696 31.5645 35.6475 33.1593C34.406 34.0975 33.7576 36.9076 33.7597 38.3746C33.7931 39.9977 34.7286 42.3061 36.0969 43.1468C37.4031 43.9565 38.8953 44.4538 40.2017 45.4195C42.4102 47.0706 44.152 48.3166 45.2433 50.9057C45.4615 51.436 45.6493 52.3409 46.1469 52.6523L46.1779 52.6523Z" fill="#D8B212"/>
<path opacity="0.34" d="M37.2137 41.8118C36.0944 41.3452 35.037 40.6913 34.6002 39.4434C34.0386 37.8211 34.1294 36.1355 34.6553 34.5429C34.0978 35.761 33.7893 37.3533 33.7907 38.3209C33.8241 39.9439 34.7596 42.2523 36.128 43.0931C37.4342 43.9028 38.9263 44.4 40.2328 45.3657C40.3883 45.4904 40.5127 45.5838 40.6682 45.6772C40.2929 43.9611 39.1412 42.5894 37.2136 41.7806L37.2137 41.8118Z" fill="#FFFB73"/>
<path opacity="0.72" d="M37.9244 39.1539C37.7681 38.5298 37.301 37.8126 37.2382 37.3757C37.1131 36.7828 37.2976 35.4404 36.8309 34.9729C35.6794 33.7572 35.6838 36.7849 35.6847 37.3779C35.6856 38.0022 36.9646 41.5586 37.8944 39.903C38.0184 39.6843 37.9869 39.4347 37.9244 39.1539Z" fill="#F4C134"/>
<path d="M49.2186 49.6203C49.2477 48.2156 47.5372 47.1256 46.8211 46.1591C46.1985 45.3796 45.483 44.7564 44.6742 44.1333C43.2744 43.0117 41.8124 41.8901 40.4435 40.706C40.008 40.332 39.6656 39.9268 39.3542 39.459C39.3566 41.1133 38.7065 42.831 37.5273 43.8939C38.429 44.3296 39.3618 44.7652 40.2017 45.4195C42.4102 47.0706 44.152 48.3166 45.2433 50.9057C45.4615 51.436 45.6493 52.3409 46.1469 52.6523C47.4842 53.5244 49.1269 50.6816 49.1875 49.6203L49.2186 49.6203Z" fill="#AFAF08"/>
<path opacity="0.34" d="M49.2185 49.6203C49.2178 49.1208 49.0307 48.6529 48.7194 48.2476C48.8448 48.9653 48.7212 49.4961 47.9136 49.6533C46.4847 49.9363 45.5504 48.4707 44.8032 47.4729C43.1844 45.2903 40.883 43.8579 38.6436 42.3629C38.3648 42.9251 37.9927 43.4562 37.5272 43.8939C38.429 44.3296 39.3617 44.7652 40.2016 45.4195C42.4101 47.0706 44.1519 48.3166 45.2432 50.9057C45.4615 51.436 45.6492 52.3409 46.1468 52.6523C47.4841 53.5244 49.1269 50.6816 49.1875 49.6203L49.2185 49.6203Z" fill="#FFFB73"/>
<path opacity="0.41" d="M35.3066 33.7439C36.7663 33.2112 37.3901 34.8958 37.6402 35.9567C38.6094 40.1066 40.2597 42.5076 44.2707 44.3746C44.8926 44.6859 45.4833 44.9347 46.012 45.2461C45.5764 44.841 45.1408 44.467 44.6743 44.1244C43.2744 43.0027 41.8124 41.8811 40.4435 40.697C39.0436 39.5129 38.389 38.0469 38.1067 36.2369C37.9186 35.0511 37.696 31.5556 35.6476 33.1504C35.3993 33.338 35.1822 33.6505 34.9651 33.9317C35.0893 33.8691 35.1824 33.8065 35.3066 33.7439Z" fill="#8C7929"/>
<defs>
<radialGradient id="paint0_radial_4_2901" cx="0" cy="0" r="1" gradientUnits="userSpaceOnUse" gradientTransform="translate(45.982 52.8755) rotate(108.529) scale(49.3872 49.2096)">
<stop stop-color="#FFBC00"/>
<stop offset="0.07" stop-color="#FCC000"/>
<stop offset="0.34" stop-color="#F6D000"/>
<stop offset="0.55" stop-color="#F4D600"/>
<stop offset="1" stop-color="#FFF75A"/>
</radialGradient>
</defs>
</svg>
